<?xml version="1.0" ?><svg style="enable-background:new 0 0 32 32;" version="1.1" viewBox="0 0 32 32" xml:space="preserve" xmlns="http://www.w3.org/2000/svg" xmlns:xlink="http://www.w3.org/1999/xlink"><style type="text/css">
	.st0{display:none;}
	.st1{fill:none;}
</style><g class="st0" id="grid"/><g id="Layer_2"><g><path d="M14.51,31H9.49C8.67,31,8,30.33,8,29.51V26h2v3h4V17.49c0-0.82,0.67-1.49,1.49-1.49H20v-3h-4.51    C14.67,13,14,12.33,14,11.51V7.49C14,6.67,14.67,6,15.49,6H20V3h-5.51C12.02,3,10,5.02,10,7.49v4.01C10,12.33,9.33,13,8.51,13H6v3    h2.51C9.33,16,10,16.67,10,17.49V24H8v-6H5.49C4.67,18,4,17.33,4,16.51v-4.01C4,11.67,4.67,11,5.49,11H8V7.49    C8,3.91,10.91,1,14.49,1h6.01C21.33,1,22,1.67,22,2.49v4.01C22,7.33,21.33,8,20.51,8H16v3h4.51c0.82,0,1.49,0.67,1.49,1.49v4.01    c0,0.82-0.67,1.49-1.49,1.49H16v11.51C16,30.33,15.33,31,14.51,31z"/></g></g></svg>